<svg width="26" height="29" viewBox="0 0 26 29" fill="none" xmlns="http://www.w3.org/2000/svg">
  <path d="M0.166135 12.2377V12.2686V12.342C0.166135 12.342 0.166135 12.3691 0.166135 12.3845V12.4232V12.4464C0.166135 12.4927 0.16614 12.5391 0.146822 12.5855C0.127504 12.6318 0.146822 12.6705 0.146822 12.713V12.7632C0.146822 12.8134 0.146815 12.8675 0.127497 12.9177C0.10818 12.9679 0.127497 12.995 0.127497 13.0336V13.0723C0.125588 13.0864 0.125588 13.1006 0.127497 13.1148C0.125737 13.1314 0.125737 13.1483 0.127497 13.165C0.12569 13.1726 0.12569 13.1805 0.127497 13.1882C0.129588 13.201 0.129588 13.214 0.127497 13.2268V13.2925C0.127497 13.3466 0.127497 13.4006 0.127497 13.4663C0.127497 13.4934 0.127497 13.5204 0.127497 13.5475C0.127497 13.5745 0.127497 13.6016 0.127497 13.6286V13.6672C0.127497 13.6981 0.127497 13.729 0.127497 13.76V13.8025C0.127497 13.8604 0.127497 13.9145 0.127497 13.9686V14.1888V14.4592C0.160341 17.1413 1.25351 19.7012 3.1681 21.5797C5.07517 23.4704 7.65337 24.5289 10.3388 24.5237C10.7663 24.522 11.1933 24.4949 11.6176 24.4426C11.8069 24.4194 12.004 24.3924 12.1856 24.3576C10.7794 23.5056 9.56722 22.3685 8.62724 21.0195C8.28489 20.5288 7.98134 20.0121 7.71933 19.4741C7.65751 19.3543 7.60342 19.2307 7.54933 19.1109C7.54132 19.0975 7.53484 19.0833 7.53001 19.0684C6.86204 17.5693 6.51841 15.9459 6.52163 14.3047C6.499 11.9479 7.18993 9.63946 8.50362 7.68264C8.81876 7.2317 9.16472 6.80311 9.53904 6.39995C10.7482 5.09179 12.2401 4.07695 13.901 3.43277C14.4043 3.23727 14.9207 3.07719 15.4464 2.95369C16.3329 2.74681 17.2404 2.6431 18.1508 2.64462C20.2518 2.64063 22.315 3.20246 24.1238 4.27115V4.27115L24.0736 4.22478L24.0079 4.15911H23.9847L23.9229 4.10115C23.903 4.0786 23.881 4.05792 23.8573 4.03934L23.78 3.9698L23.7491 3.93889H23.7298L23.6216 3.8423C23.5845 3.80443 23.5444 3.76955 23.5018 3.73798L23.4632 3.70322L23.382 3.63368L23.328 3.58732L23.297 3.56414H23.2739L23.1773 3.48686L23.1039 3.4289L22.8682 3.24346C22.8447 3.22891 22.8227 3.21209 22.8025 3.19323L22.7755 3.17392L22.7291 3.143L22.6673 3.09664H22.648L22.6132 3.07346H22.59L22.5205 3.02324H22.5012C22.4432 2.98074 22.3852 2.93823 22.3234 2.8996L22.2423 2.8455H22.223L22.0994 2.76439H22.0723L21.9873 2.70642L21.8559 2.62144L21.7207 2.53643L21.6473 2.49393H21.6164L21.5739 2.46689H21.5469L21.4503 2.40892H21.4232H21.3923L21.3035 2.3587C21.1026 2.24666 20.8978 2.13849 20.693 2.03417L20.5578 1.9685L20.4342 1.91054C20.2912 1.841 20.1599 1.78305 20.0478 1.72896L19.959 1.68645H19.9319L19.8778 1.66327L19.8199 1.64009H19.7928L19.4412 1.50101L19.3794 1.47783L19.3176 1.45465L18.7806 1.27305L18.6763 1.24216L18.572 1.20738H18.5063L18.2822 1.14557H18.2513H18.2049H17.8804L17.4283 1.03351L17.1579 0.975574C17.0034 0.940802 16.8527 0.909897 16.6981 0.882853L16.5282 0.851938L16.3582 0.824891H16.2809H16.1804L15.6898 0.763085C15.3691 0.732176 15.0523 0.708978 14.7316 0.697388C14.5539 0.697388 14.3762 0.697388 14.1946 0.697388C13.8971 0.697388 13.5957 0.697394 13.2944 0.728302H13.2017C12.8694 0.751484 12.541 0.786263 12.2126 0.832625L12.0387 0.859673L0.193182 12.7052L0.166135 12.2377Z" fill="#4097DB"/>
  <path d="M24.9731 17.3401V17.3169C24.975 17.2977 24.975 17.2782 24.9731 17.259V17.1817V17.1469C24.9749 17.1393 24.9749 17.1314 24.9731 17.1238V17.0349V16.9731C24.9731 16.9151 24.9731 16.8572 24.9925 16.8031C24.9925 16.7528 24.9925 16.7026 25.0118 16.6524V16.5326V16.494C25.0137 16.467 25.0137 16.4399 25.0118 16.4129V16.3897C25.0118 16.3549 25.0118 16.3201 25.0118 16.2815C25.0118 16.2313 25.0118 16.1772 25.0118 16.1154V15.9531V15.8913C25.0118 15.8449 25.0118 15.8024 25.0118 15.7561C25.0118 15.7097 25.0118 15.6324 25.0118 15.5745V15.5397C25.0118 15.5011 25.0118 15.4547 25.0118 15.4122V15.134V15.0452C24.9767 12.3629 23.8823 9.80327 21.9673 7.92471C20.0879 6.07072 17.5602 5.02167 14.9203 5.00002C14.3009 4.99884 13.6827 5.05445 13.0735 5.16615C14.4787 6.00808 15.691 7.13619 16.6318 8.47719C18.0082 10.4439 18.7435 12.7877 18.7374 15.1881C18.743 17.5885 18.0077 19.9321 16.6318 21.8991C15.2939 23.8242 13.4099 25.3045 11.2229 26.1489C9.86637 26.6676 8.42527 26.9296 6.973 26.9216C4.87155 26.9256 2.80799 26.3623 1 25.2912L1.02704 25.3144L1.05408 25.3453L1.12362 25.411L1.25113 25.5308L1.33612 25.6119L1.49066 25.7548L1.59497 25.8476H1.61815L1.71861 25.9364V25.9558C1.74524 25.9798 1.77366 26.0017 1.80361 26.0214L1.88474 26.0871L1.94656 26.1374L2.18224 26.3189L2.23245 26.3576L2.29041 26.4039L2.32518 26.4271H2.3445L2.43722 26.4967L2.46813 26.516L2.51449 26.5508L2.58403 26.601H2.61108L2.7888 26.7246L2.86994 26.7787H2.88926L2.95494 26.8212L3.02448 26.8675L3.13266 26.9371L3.24084 27.0066H3.33356L3.49196 27.1612L3.56924 27.2075L3.71605 27.2925L3.83582 27.3582C4.04445 27.478 4.25694 27.59 4.46943 27.6943L4.60853 27.7639L4.74374 27.8257L5.13009 28.0073L5.22668 28.0498H5.26146L5.39282 28.1039L5.7444 28.2391L5.8603 28.2816L6.39347 28.4632L6.49778 28.498L6.65619 28.5482H6.69869L6.888 28.6023L6.98459 28.6293C7.37094 28.7375 7.75729 28.8263 8.16683 28.8959L8.32909 28.9229L8.49136 28.9461L8.65749 28.9693C9.31408 29.062 9.97637 29.1085 10.6395 29.1084C11.3039 29.1086 11.9675 29.0621 12.6253 28.9693V28.9693L12.7799 28.9461L24.9693 17.3633C24.9716 17.36 24.9732 17.3561 24.9739 17.3521C24.9745 17.3481 24.9743 17.344 24.9731 17.3401V17.3401Z" fill="#1C4B70"/>
</svg>
